HIERARCHY
ROOT Hips
{
  OFFSET -7.9889 92.829 659.009
  CHANNELS 6 Xposition Yposition Zposition Zrotation Xrotation Yrotation
  JOINT Spine
  {
    OFFSET 0 4.73261 7.09891
    CHANNELS 3 Zrotation Xrotation Yrotation
    JOINT Spine1
    {
      OFFSET 0 0 9.46522
      CHANNELS 3 Zrotation Xrotation Yrotation
      JOINT Spine2
      {
        OFFSET 0 0 9.46522
        CHANNELS 3 Zrotation Xrotation Yrotation
        JOINT Spine3
        {
          OFFSET 0 0 9.46522
          CHANNELS 3 Zrotation Xrotation Yrotation
          JOINT Neck
          {
            OFFSET 0 -3.54946 24.8462
            CHANNELS 3 Zrotation Xrotation Yrotation
            JOINT Head
            {
              OFFSET 0 0 13.0147
              CHANNELS 3 Zrotation Xrotation Yrotation
              End Site
              {
                OFFSET 0 0 15.3218
              }
            }
          }
          JOINT RightShoulder
          {
            OFFSET -3.19949 -5.33248 17.2773
            CHANNELS 3 Zrotation Xrotation Yrotation
            JOINT RightArm
            {
              OFFSET 15.8908 0 0
              CHANNELS 3 Zrotation Xrotation Yrotation
              JOINT RightForeArm
              {
                OFFSET 29.5436 0 0
                CHANNELS 3 Zrotation Xrotation Yrotation
                JOINT RightHand
                {
                  OFFSET 23.2652 0 0
                  CHANNELS 3 Zrotation Xrotation Yrotation
                  JOINT RightHandEnd
                  {
                    OFFSET 6.96115 0 0
                    CHANNELS 3 Zrotation Xrotation Yrotation
                    End Site
                    {
                      OFFSET 6.96115 0 0
                    }
                  }
                  JOINT RightHandThumb1
                  {
                    OFFSET 2.78446 -4.64077 1.85631
                    CHANNELS 3 Zrotation Xrotation Yrotation
                    JOINT RightHandThumb2
                    {
                      OFFSET 6.96115 0 0
                      CHANNELS 3 Zrotation Xrotation Yrotation
                      End Site
                      {
                        OFFSET 0 0 0
                      }
                    }
                  }
                }
              }
            }
          }
          JOINT LeftShoulder
          {
            OFFSET 3.19949 -5.33248 17.2773
            CHANNELS 3 Zrotation Xrotation Yrotation
            JOINT LeftArm
            {
              OFFSET 15.8908 0 0
              CHANNELS 3 Zrotation Xrotation Yrotation
              JOINT LeftForeArm
              {
                OFFSET 29.5436 0 0
                CHANNELS 3 Zrotation Xrotation Yrotation
                JOINT LeftHand
                {
                  OFFSET 23.2652 0 0
                  CHANNELS 3 Zrotation Xrotation Yrotation
                  JOINT LeftHandEnd
                  {
                    OFFSET 6.96115 0 0
                    CHANNELS 3 Zrotation Xrotation Yrotation
                    End Site
                    {
                      OFFSET 6.96115 0 0
                    }
                  }
                  JOINT LeftHandThumb1
                  {
                    OFFSET 2.78446 -4.64077 -1.85631
                    CHANNELS 3 Zrotation Xrotation Yrotation
                    JOINT LeftHandThumb2
                    {
                      OFFSET 6.96115 0 0
                      CHANNELS 3 Zrotation Xrotation Yrotation
                      End Site
                      {
                        OFFSET 0 0 0
                      }
                    }
                  }
                }
              }
            }
          }
        }
      }
    }
  }
  JOINT RightUpLeg
  {
    OFFSET -9.49182 0 -2.77289
    CHANNELS 3 Zrotation Xrotation Yrotation
    JOINT RightLeg
    {
      OFFSET 41.2118 0 0
      CHANNELS 3 Zrotation Xrotation Yrotation
      JOINT RightFoot
      {
        OFFSET 45.6091 0 0
        CHANNELS 3 Zrotation Xrotation Yrotation
        JOINT RightToeBase
        {
          OFFSET 17.0969 0 0
          CHANNELS 3 Zrotation Xrotation Yrotation
          End Site
          {
            OFFSET 7.67878 0 0
          }
        }
      }
    }
  }
  JOINT LeftUpLeg
  {
    OFFSET 9.49182 0 -2.77289
    CHANNELS 3 Zrotation Xrotation Yrotation
    JOINT LeftLeg
    {
      OFFSET 41.2118 0 0
      CHANNELS 3 Zrotation Xrotation Yrotation
      JOINT LeftFoot
      {
        OFFSET 45.6091 0 0
        CHANNELS 3 Zrotation Xrotation Yrotation
        JOINT LeftToeBase
        {
          OFFSET 17.0969 0 0
          CHANNELS 3 Zrotation Xrotation Yrotation
          End Site
          {
            OFFSET 7.67878 0 0
          }
        }
      }
    }
  }
}
MOTION
Frames:	14
Frame Time:	0.00833333
-5.51851 90.9337 339.594 77.0455 -86.8828 71.6065 1.12368 -10.3873 3.71573 0.372589 5.06065 2.02843 -1.56561 11.6832 -0.366618 0.312936 0.838925 -0.893626 -2.32276 7.35178 -2.03619 -2.18626 -15.8004 0.416231 -2.47002 5.92709 170.776 -14.7163 -7.48015 -68.8312 -30.5622 3.62583e-13 4.33828e-12 1.27164 0.926424 -0.217235 2.38856e-08 -90 2.38856e-08 165 10 -180 -6.45579e-10 5.61546e-10 5.6563e-11 -6.61656 1.9422 1.21469 -19.0993 5.86056 64.7072 -45.5058 5.53417e-13 -1.0569e-11 -0.0695941 -11.3213 3.83493 0 90 -0 165 10 -180 1.76985e-10 1.4354e-09 6.63314e-10 -19.5988 -28.6291 86.7983 6.97762 0.00610097 7.87192e-07 -74.8833 4.92881 -2.06913 -22.6337 -1.04468e-10 1.88845e-11 9.87617 13.7244 96.0427 8.76339 -0.000106924 2.31142e-06 -90.2648 3.28556 6.45559 -20.861 -3.39184e-10 -6.17584e-12 
-5.58954 90.7706 340.522 78.283 -86.7403 72.8537 1.10239 -10.3424 3.67575 0.367725 5.07534 2.01053 -1.55044 11.642 -0.407809 0.311071 0.838024 -0.890826 -2.29976 7.29005 -1.98803 -2.23132 -15.9265 0.396355 -2.46701 5.97286 170.844 -14.8478 -7.41705 -68.9054 -30.3543 3.40319e-13 3.11376e-12 1.30364 0.846612 -0.281891 -1.49285e-08 -90 -1.49285e-08 165 10 -180 -2.14602e-10 1.79415e-10 -5.94303e-11 -6.55075 2.03819 1.17415 -19.1571 5.80564 64.9575 -45.224 -2.63986e-13 1.92424e-12 -0.127075 -11.4395 3.90389 -1.19428e-08 90 1.19428e-08 165 10 -180 -7.42723e-11 -2.66977e-10 -1.24492e-10 -19.1115 -28.7714 86.9131 8.0966 0.00602808 2.6044e-05 -75.2234 4.64369 -0.183329 -22.7922 -9.68638e-12 4.2163e-11 9.89166 13.9223 95.7692 9.5367 -0.000523699 4.59092e-06 -90.6718 3.16411 6.70052 -21.1313 -2.99403e-10 -1.4947e-11 
-5.66575 90.6063 341.475 79.4521 -86.5954 74.0704 1.07537 -10.3075 3.60944 0.361475 5.08562 1.99035 -1.54286 11.6097 -0.46215 0.307365 0.838427 -0.888028 -2.26972 7.23386 -1.93049 -2.27359 -16.0518 0.383713 -2.45747 6.01183 170.923 -14.9799 -7.35495 -68.9771 -30.1437 3.37139e-13 1.38354e-12 1.32465 0.758918 -0.340003 2.38856e-08 -90 2.38856e-08 165 10 -180 2.33987e-10 -8.84226e-11 -1.3403e-10 -6.47258 2.13825 1.14297 -19.2269 5.76145 65.2235 -44.8903 -9.35083e-13 1.29417e-11 -0.186439 -11.5642 3.99 3.18055e-15 90 -0 165 10 -180 -2.91778e-10 -1.85753e-09 -8.47354e-10 -18.6297 -28.9481 87.0109 9.48267 0.00570224 3.24087e-05 -75.4118 4.06525 1.57515 -22.9672 7.28339e-11 6.39085e-11 9.91957 14.0841 95.4407 10.3718 -0.000933242 4.02559e-06 -91.0423 3.0439 6.95793 -21.4659 -2.40341e-10 -2.14799e-11 
-5.77371 90.4788 342.412 79.8836 -86.4287 74.656 1.04946 -10.3304 3.45147 0.35442 5.06604 1.96811 -1.55753 11.6257 -0.528113 0.300251 0.836297 -0.886028 -2.24642 7.15025 -1.87464 -2.31203 -16.0791 0.401238 -2.4322 6.01815 170.948 -15.0661 -7.33234 -68.9941 -29.9485 4.10292e-13 -1.18953e-12 1.31092 0.703281 -0.35893 -1.49285e-08 -90 -1.49285e-08 165 10 -180 5.58699e-10 8.57859e-11 -5.40074e-11 -6.39667 2.21242 1.17388 -19.3142 5.77773 65.4516 -44.5152 -1.15454e-12 1.57088e-11 -0.227744 -11.6727 4.07189 -2.9857e-08 90 2.98569e-08 165 10 -180 -3.35374e-10 -2.51463e-09 -1.10721e-09 -18.2942 -29.0944 86.9403 10.7689 0.00451976 1.28017e-12 -75.2726 3.16821 2.88714 -23.0918 8.30689e-11 7.55811e-11 10.0291 14.1371 94.9704 11.2956 -0.00139981 2.5524e-13 -91.3612 2.9284 7.27792 -21.874 -2.33752e-10 -2.29731e-11 
-5.8808 90.3614 343.378 79.3151 -86.2351 74.3815 1.02938 -10.4433 3.15978 0.347664 4.99871 1.94982 -1.60599 11.7276 -0.593493 0.286371 0.831782 -0.885211 -2.23539 7.01413 -1.83537 -2.34174 -15.9434 0.471051 -2.37791 5.96766 170.886 -15.0907 -7.37236 -68.9334 -29.7722 6.10666e-13 -5.56359e-12 1.24324 0.688953 -0.321853 -1.49285e-08 -90 -1.49285e-08 165 10 -180 7.37348e-10 1.06147e-09 3.02674e-10 -6.32944 2.24445 1.28508 -19.4152 5.88372 65.6166 -44.1171 -8.33305e-13 4.97757e-12 -0.246669 -11.7642 4.13854 -1.79142e-08 90 1.79142e-08 165 10 -180 -8.93227e-11 -1.72984e-09 -6.35985e-10 -18.2365 -29.2095 86.6045 11.9201 0.00200573 -4.98976e-05 -74.6971 1.69406 3.56737 -23.1537 -2.73631e-11 7.33484e-11 10.2808 14.0454 94.3066 12.3263 -0.00200739 -7.7863e-06 -91.6502 2.81304 7.71126 -22.3418 -3.32813e-10 -1.62964e-11 
-5.99903 90.2548 344.355 78.2646 -86.0248 73.7232 1.00958 -10.6141 2.7772 0.340558 4.9009 1.93338 -1.67776 11.8855 -0.662914 0.267542 0.826538 -0.885097 -2.22866 6.8485 -1.80279 -2.36512 -15.7098 0.575615 -2.30324 5.87978 170.776 -15.0796 -7.45023 -68.8261 -29.6054 8.93736e-13 -1.12528e-11 1.13861 0.695006 -0.248892 1.19428e-08 -90 1.19428e-08 165 10 -180 8.40217e-10 2.57317e-09 8.45019e-10 -6.26227 2.25321 1.44715 -19.5291 6.04756 65.7511 -43.6854 -2.92611e-13 -1.44524e-11 -0.253528 -11.8491 4.20317 1.19428e-08 90 -1.19428e-08 165 10 -180 3.45542e-10 -3.78057e-11 3.00061e-10 -18.3515 -29.322 86.1014 13.1113 -0.0014144 -6.73759e-05 -73.803 -0.253918 3.84502 -23.1868 -2.15634e-10 6.21035e-11 10.6205 13.8499 93.5066 13.4459 -0.00269968 -1.34081e-05 -91.9084 2.69743 8.21898 -22.8698 -4.88012e-10 -4.89646e-12 
-6.15099 90.1769 345.332 77.2342 -85.8031 73.1396 0.981838 -10.7943 2.36578 0.331036 4.79993 1.9068 -1.75435 12.0372 -0.760217 0.249954 0.818993 -0.885183 -2.21959 6.69254 -1.75085 -2.39174 -15.4753 0.678529 -2.23172 5.79414 170.665 -15.0486 -7.53274 -68.7005 -29.4475 1.145e-12 -1.64888e-11 1.02763 0.716167 -0.162827 3.88141e-08 -90 3.8814e-08 165 10 -180 8.64503e-10 4.01126e-09 1.36667e-09 -6.18742 2.26157 1.64136 -19.6663 6.22733 65.8878 -43.1863 1.84472e-13 -3.44788e-11 -0.250416 -11.9211 4.28087 -5.97139e-09 90 5.97139e-09 165 10 -180 7.84338e-10 1.81847e-09 1.29742e-09 -18.4259 -29.4135 85.5718 14.291 -0.00499418 -4.20181e-05 -72.7613 -2.15391 4.01578 -23.1931 -4.04838e-10 4.62771e-11 10.9459 13.5945 92.6475 14.6277 -0.00333049 -1.06714e-05 -92.0874 2.59229 8.71682 -23.4887 -6.17057e-10 4.34623e-12 
-6.3182 90.1258 346.31 76.6285 -85.5767 72.9912 0.938923 -10.9351 1.98774 0.31701 4.72312 1.8581 -1.81733 12.1207 -0.909475 0.239799 0.807576 -0.884967 -2.20151 6.58547 -1.65348 -2.43056 -15.3372 0.743532 -2.18659 5.75057 170.599 -15.0137 -7.58668 -68.5849 -29.2973 1.23087e-12 -1.9461e-11 0.940932 0.747321 -0.086465 3.18055e-15 -90 -0 165 10 -180 8.07362e-10 4.76618e-09 1.66129e-09 -6.09723 2.29237 1.84898 -19.8371 6.38091 66.059 -42.586 3.88028e-13 -4.69243e-11 -0.239413 -11.9741 4.38675 -3.58283e-08 90 3.58283e-08 165 10 -180 1.04219e-09 3.09598e-09 1.95259e-09 -18.2447 -29.4691 85.1572 15.4076 -0.00798744 3.42705e-12 -71.7303 -3.47732 4.34758 -23.1748 -5.18075e-10 3.03298e-11 11.1562 13.3264 91.8044 15.8454 -0.00375359 -6.3293e-13 -92.1394 2.50976 9.12075 -24.2293 -6.37538e-10 6.17425e-12 
-6.48433 90.0817 347.305 76.4047 -85.3211 73.2396 0.878427 -11.0324 1.65388 0.297385 4.67357 1.78201 -1.87015 12.1162 -1.12707 0.238927 0.790731 -0.883804 -2.18105 6.53845 -1.49479 -2.48793 -15.325 0.745226 -2.19761 5.76626 170.558 -14.9761 -7.61284 -68.4536 -29.1678 1.08775e-12 -1.95835e-11 0.883229 0.779644 -0.0225627 4.47854e-08 -90 4.47854e-08 165 10 -180 5.99837e-10 4.51869e-09 1.64525e-09 -5.99219 2.35837 2.09616 -20.0713 6.50302 66.238 -41.8609 4.67542e-13 -4.90807e-11 -0.227334 -12.0096 4.53397 -2.9857e-08 90 2.98569e-08 165 10 -180 1.03979e-09 3.62711e-09 2.15624e-09 -17.6409 -29.5054 84.9271 16.441 -0.0101899 1.95831e-05 -70.6363 -3.99406 4.90242 -23.1333 -5.2518e-10 1.27572e-11 11.193 13.052 90.9791 17.0786 -0.00396094 1.90684e-06 -92.0805 2.44774 9.4097 -25.0669 -4.78269e-10 1.26427e-13 
-6.63809 90.0457 348.328 76.3347 -85.0418 73.675 0.804771 -11.1091 1.33298 0.273438 4.63814 1.6856 -1.9202 12.058 -1.39692 0.243971 0.769676 -0.882129 -2.15904 6.53039 -1.29167 -2.5576 -15.3857 0.70811 -2.2444 5.81788 170.528 -14.9282 -7.62563 -68.3024 -29.055 8.07861e-13 -1.7827e-11 0.839313 0.818397 0.0399455 1.79142e-08 -90 1.79142e-08 165 10 -180 2.66171e-10 3.64613e-09 1.43814e-09 -5.8758 2.44545 2.38241 -20.3544 6.61373 66.4195 -41.0338 6.17028e-13 -4.54899e-11 -0.211014 -12.0297 4.71144 -1.79142e-08 90 1.79142e-08 165 10 -180 8.85743e-10 3.79797e-09 2.12414e-09 -16.7649 -29.525 84.7958 17.4209 -0.0120025 1.66413e-05 -69.4415 -4.01099 5.52099 -23.0672 -4.70398e-10 -7.91958e-12 11.1195 12.7518 90.1367 18.3459 -0.0040206 -7.07971e-06 -91.9272 2.40317 9.62842 -25.996 -1.99467e-10 -7.03221e-12 
-6.78373 90.022 349.364 76.4773 -84.7908 74.3325 0.721799 -11.1569 1.02452 0.246678 4.61977 1.57547 -1.95508 11.965 -1.69446 0.253291 0.746998 -0.881062 -2.12018 6.55219 -1.0672 -2.62935 -15.4923 0.670808 -2.27506 5.88442 170.565 -14.8737 -7.61246 -68.1928 -28.9332 5.1525e-13 -1.48246e-11 0.809949 0.879717 0.0989615 -8.95709e-09 -90 -8.95708e-09 165 10 -180 -5.6633e-11 2.58377e-09 1.1384e-09 -5.74492 2.53599 2.64897 -20.6303 6.70857 66.6676 -40.1408 7.56972e-13 -3.88155e-11 -0.177621 -12.0294 4.89781 -1.79142e-08 90 1.79142e-08 165 10 -180 6.77013e-10 3.69609e-09 1.94048e-09 -15.8781 -29.4926 84.672 18.3709 -0.0135879 3.5626e-06 -68.3503 -3.80474 6.12408 -22.9742 -3.88468e-10 -2.72255e-11 11.0198 12.4353 89.2961 19.6798 -0.00389993 -1.19815e-05 -91.6324 2.38734 9.7917 -27.0765 8.4256e-11 -9.85256e-12 
-6.93198 90.0247 350.414 76.9008 -84.6196 75.2565 0.633432 -11.168 0.727992 0.218643 4.62138 1.45821 -1.96219 11.856 -1.99511 0.265248 0.725286 -0.881724 -2.04913 6.59489 -0.84446 -2.6928 -15.6184 0.672065 -2.23778 5.94491 170.722 -14.8164 -7.56093 -68.1861 -28.7768 3.24417e-13 -1.11796e-11 0.79588 0.97974 0.15239 3.88141e-08 -90 3.8814e-08 165 10 -180 -2.31592e-10 1.76685e-09 8.44498e-10 -5.59602 2.61214 2.83713 -20.8433 6.78296 67.0459 -39.218 7.56972e-13 -3.17833e-11 -0.114378 -12.0035 5.07172 -2.38856e-08 90 2.38856e-08 165 10 -180 5.10609e-10 3.40902e-09 1.6894e-09 -15.2421 -29.3742 84.4637 19.3145 -0.0151076 4.93582e-13 -67.5608 -3.65867 6.64465 -22.8519 -3.14096e-10 -4.06348e-11 10.9781 12.1092 88.477 21.1128 -0.00356552 7.95457e-12 -91.149 2.41154 9.91408 -28.3689 2.58274e-10 -6.38973e-12 
-7.07695 90.0428 351.481 77.7144 -84.5506 76.5623 0.53457 -11.1265 0.448344 0.187526 4.65304 1.32626 -1.93633 11.7171 -2.31359 0.279592 0.702094 -0.884713 -1.92854 6.66284 -0.615221 -2.74335 -15.767 0.73283 -2.10748 5.99772 171.053 -14.7453 -7.45396 -68.3276 -28.5569 3.24417e-13 -6.24581e-12 0.800981 1.14146 0.205976 1.79142e-08 -90 1.79142e-08 165 10 -180 -1.95213e-10 1.27029e-09 5.38559e-10 -5.40783 2.66649 2.93001 -20.9829 6.83086 67.6024 -38.2437 5.53417e-13 -2.35934e-11 -0.0210189 -11.9391 5.21454 1.79142e-08 90 -1.79142e-08 165 10 -180 3.86552e-10 2.8134e-09 1.31691e-09 -14.8905 -29.1683 84.144 20.2784 -0.0164987 6.4233e-06 -67.0974 -3.5758 7.12435 -22.6606 -2.46009e-10 -4.67796e-11 10.9853 11.8075 87.6912 22.6321 -0.00307452 -2.8209e-06 -90.4906 2.46553 9.95257 -29.8839 2.7093e-10 4.15858e-13 
-7.21544 90.0766 352.529 78.8739 -84.5511 78.2141 0.425758 -11.0413 0.184434 0.15339 4.71012 1.17923 -1.88543 11.5441 -2.65565 0.297134 0.677084 -0.889327 -1.77131 6.75899 -0.372134 -2.78688 -15.9492 0.828924 -1.91584 6.05391 171.516 -14.6619 -7.3031 -68.5751 -28.2945 4.38917e-13 5.08889e-14 0.82353 1.35009 0.258646 -2.98569e-09 -90 -2.98569e-09 165 10 -180 -2.95315e-11 8.75661e-10 1.82786e-10 -5.18875 2.70913 2.95933 -21.0771 6.85627 68.2923 -37.2089 3.435e-13 -1.33027e-11 0.0964692 -11.8425 5.34178 5.97139e-09 90 -5.97139e-09 165 10 -180 2.61734e-10 1.91145e-09 8.03599e-10 -14.6945 -28.8898 83.7631 21.2433 -0.0177111 6.3795e-06 -66.8649 -3.43576 7.57828 -22.4145 -1.69196e-10 -4.8346e-11 11.0073 11.5149 86.9261 24.2279 -0.00242319 -2.8498e-05 -89.6737 2.54655 9.91408 -31.591 1.90277e-10 5.76873e-12 
